<svg width="1377" height="538" viewBox="0 0 1377 538" fill="none" xmlns="http://www.w3.org/2000/svg">
<path d="M64.5566 291H192.999M192.999 291V419M192.999 291L-283 767" stroke="#D3CFCC"/>
<path d="M233.557 250H361.999M361.999 250V377M361.999 250L-114 726" stroke="#D3CFCC"/>
<path d="M402.557 208H530.999M530.999 208V335M530.999 208L55 684" stroke="#D3CFCC"/>
<path d="M571.557 166H699.999M699.999 166V294M699.999 166L224 642" stroke="#D3CFCC"/>
<path d="M740.557 125H868.999M868.999 125V253M868.999 125L393 601" stroke="#D3CFCC"/>
<path d="M909.557 84H1038M1038 84V211M1038 84L562 560" stroke="#D3CFCC"/>
<path d="M1078.56 42H1207M1207 42V170M1207 42L635 614" stroke="#D3CFCC"/>
<path d="M1247.56 1H1376M1376 1V129M1376 1L726 651" stroke="#9F6000"/>
</svg>
