<svg width="362" height="191" viewBox="0 0 362 191" fill="none" xmlns="http://www.w3.org/2000/svg">
<path d="M20.2069 74H65M65 74V119M65 74L-101 240" stroke="#D3CFCC"/>
<path d="M79.2069 60H124M124 60V105M124 60L-42 226" stroke="#D3CFCC"/>
<path d="M139.207 45H184M184 45V89.5M184 45L18 211" stroke="#D3CFCC"/>
<path d="M198.207 29H243M243 29V74.5M243 29L77 195" stroke="#D3CFCC"/>
<path d="M257.09 15.5439H302M302 15.5439V60M302 15.5439L102 215.544" stroke="#D3CFCC"/>
<path d="M315.406 1H360.855M360.855 1V46.2923M360.855 1L130.855 231" stroke="#9F6000"/>
</svg>
