<svg width="817" height="422" viewBox="0 0 817 422" fill="none" xmlns="http://www.w3.org/2000/svg">
<path d="M219.75 692V326M219.75 326L189.75 356M219.75 326L249.75 356" stroke="#D3CFCC"/>
<path d="M314.125 692V261M314.125 261L284.125 291M314.125 261L344.125 291" stroke="#D3CFCC"/>
<path d="M408.5 692V219.5M408.5 219.5L378.5 249.5M408.5 219.5L438.5 249.5" stroke="#D3CFCC"/>
<path d="M502.875 692V154.5M502.875 154.5L472.875 184.5M502.875 154.5L532.875 184.5" stroke="#D3CFCC"/>
<path d="M597.25 692V108M597.25 108L567.25 138M597.25 108L627.25 138" stroke="#D3CFCC"/>
<path d="M691.625 692V57.5M691.625 57.5L661.625 87.5M691.625 57.5L721.625 87.5" stroke="#D3CFCC"/>
<path d="M786 692V1M786 1L756 31M786 1L816 31" stroke="#9F6000"/>
</svg>
