<svg width="32" height="32" viewBox="0 0 32 32" fill="none" xmlns="http://www.w3.org/2000/svg">
<path fill-rule="evenodd" clip-rule="evenodd" d="M1 0C0.447715 0 0 0.447715 0 1V31C0 31.5523 0.447715 32 1 32H31C31.5523 32 32 31.5523 32 31V1C32 0.447715 31.5523 0 31 0H1ZM11.8335 7H6V6H26V7H21.0272L19.1331 24.8794L26 24.8794V25.8794L12.8335 25.8794V25.8794H11.8335V25.8794H6V24.8794H11.8335V7ZM16.139 7H20.028L18.1339 24.8794H18.0331L16.139 7ZM15.1398 7L17.0339 24.8794H12.8335V7H15.1398Z" fill="#A79C76"/>
</svg>
