<svg width="36" height="36" viewBox="0 0 36 36" fill="none" xmlns="http://www.w3.org/2000/svg">
<path d="M27.5209 13.437C27.3759 13.5495 24.8159 14.9921 24.8159 18.1995C24.8159 21.9095 28.0734 23.222 28.1709 23.2545C28.1559 23.3345 27.6534 25.052 26.4534 26.802C25.3834 28.342 24.2659 29.8795 22.5659 29.8795C20.8659 29.8795 20.4284 28.892 18.4659 28.892C16.5534 28.892 15.8734 29.912 14.3184 29.912C12.7634 29.912 11.6784 28.487 10.4309 26.737C8.98586 24.682 7.81836 21.4895 7.81836 18.4595C7.81836 13.5995 10.9784 11.0221 14.0884 11.0221C15.7409 11.0221 17.1184 12.1071 18.1559 12.1071C19.1434 12.1071 20.6834 10.957 22.5634 10.957C23.2759 10.957 25.8359 11.022 27.5209 13.437ZM21.6709 8.89955C22.4484 7.97705 22.9984 6.69705 22.9984 5.41705C22.9984 5.23955 22.9834 5.05955 22.9509 4.91455C21.6859 4.96205 20.1809 5.75705 19.2734 6.80955C18.5609 7.61955 17.8959 8.89955 17.8959 10.1971C17.8959 10.392 17.9284 10.587 17.9434 10.6495C18.0234 10.6645 18.1534 10.682 18.2834 10.682C19.4184 10.682 20.8459 9.92205 21.6709 8.89955Z" fill="#A79C76"/>
</svg>
