<svg width="22" height="22" viewBox="0 0 22 22" fill="none" xmlns="http://www.w3.org/2000/svg">
<path fill-rule="evenodd" clip-rule="evenodd" d="M21.3127 0.609849C21.4576 0.72595 21.5262 0.912754 21.4909 1.09502L17.6199 21.095C17.5859 21.2708 17.4606 21.4149 17.2912 21.473C17.1219 21.531 16.9345 21.4942 16.7998 21.3763L12.024 17.1974L9.12605 20.6749C9.00842 20.8161 8.82286 20.8814 8.64278 20.8449C8.46269 20.8085 8.3171 20.6762 8.2636 20.5004L6.06231 13.2676L0.746493 10.1406C0.58443 10.0453 0.489549 9.86713 0.500918 9.67945C0.512288 9.49177 0.627984 9.32634 0.80037 9.25127L20.8004 0.541588C20.9706 0.467466 21.1678 0.493749 21.3127 0.609849ZM7.07211 13.151L8.58718 18.1291L9.2158 14.1478C9.23051 14.0547 9.27128 13.9675 9.33339 13.8966L13.7627 8.83451L7.07211 13.151ZM9.51861 18.6418L11.5836 16.1638C11.6699 16.0603 11.7942 15.996 11.9285 15.9854C12.0628 15.9748 12.1956 16.0189 12.297 16.1076L16.8035 20.0508L20.3286 1.83775L2.09937 9.77628L6.47176 12.3483L16.2128 6.06373C16.4223 5.92859 16.6993 5.96838 16.8622 6.15703C17.0252 6.34567 17.0243 6.62553 16.8602 6.81313L10.181 14.4464L9.51861 18.6418Z" fill="#9F6000"/>
</svg>
