<svg width="34" height="34" viewBox="0 0 34 34" fill="none" xmlns="http://www.w3.org/2000/svg">
<path fill-rule="evenodd" clip-rule="evenodd" d="M33.3127 0.609844C33.4576 0.725944 33.5262 0.912748 33.4909 1.09501L27.2973 33.095C27.2633 33.2707 27.138 33.4149 26.9687 33.473C26.7993 33.531 26.6119 33.4942 26.4772 33.3763L18.6046 26.4878L13.7712 32.2878C13.6536 32.429 13.468 32.4942 13.2879 32.4578C13.1079 32.4214 12.9623 32.2891 12.9088 32.1133L9.35263 20.4289L0.746494 15.3665C0.58443 15.2711 0.489549 15.0929 0.500918 14.9053C0.512288 14.7176 0.627984 14.5521 0.80037 14.4771L32.8004 0.541582C32.9706 0.46746 33.1678 0.493743 33.3127 0.609844ZM10.3624 20.3123L13.2323 29.742L14.4416 22.0833C14.4563 21.9901 14.4971 21.903 14.5592 21.832L23.053 12.1248L10.3624 20.3123ZM14.1638 30.2547L18.1643 25.4541C18.2505 25.3506 18.3748 25.2863 18.5091 25.2757C18.6434 25.2652 18.7763 25.3092 18.8776 25.3979L26.4809 32.0508L32.3286 1.83775L2.09937 15.0021L9.76209 19.5096L25.5031 9.35404C25.7126 9.2189 25.9896 9.2587 26.1526 9.44734C26.3155 9.63599 26.3146 9.91584 26.1505 10.1034L15.4069 22.3819L14.1638 30.2547Z" fill="#A79C76"/>
</svg>
