<svg width="1312" height="591" viewBox="0 0 1312 591" fill="none" xmlns="http://www.w3.org/2000/svg">
<path d="M31 692V492M31 492L1 522M31 492L61 522" stroke="#B6B6B6" stroke-opacity="0.32"/>
<path d="M169.891 692V435M169.891 435L139.891 465M169.891 435L199.891 465" stroke="#B6B6B6" stroke-opacity="0.32"/>
<path d="M308.777 692V384.5M308.777 384.5L278.777 414.5M308.777 384.5L338.777 414.5" stroke="#B6B6B6" stroke-opacity="0.32"/>
<path d="M447.668 692V326M447.668 326L417.668 356M447.668 326L477.668 356" stroke="#B6B6B6" stroke-opacity="0.32"/>
<path d="M586.555 692V261M586.555 261L556.555 291M586.555 261L616.555 291" stroke="#B6B6B6" stroke-opacity="0.32"/>
<path d="M725.445 692V219.5M725.445 219.5L695.445 249.5M725.445 219.5L755.445 249.5" stroke="#B6B6B6" stroke-opacity="0.32"/>
<path d="M864.332 692V154.5M864.332 154.5L834.332 184.5M864.332 154.5L894.332 184.5" stroke="#B6B6B6" stroke-opacity="0.32"/>
<path d="M1003.22 692V108M1003.22 108L973.223 138M1003.22 108L1033.22 138" stroke="#B6B6B6" stroke-opacity="0.32"/>
<path d="M1142.11 692V57.5M1142.11 57.5L1112.11 87.5M1142.11 57.5L1172.11 87.5" stroke="#B6B6B6" stroke-opacity="0.32"/>
<path d="M1281 692V1M1281 1L1251 31M1281 1L1311 31" stroke="#A79C76"/>
</svg>
