<svg width="1272" height="422" viewBox="0 0 1272 422" fill="none" xmlns="http://www.w3.org/2000/svg">
<path d="M-40.4434 291H87.9994M87.9994 291V419M87.9994 291L-388 767" stroke="#616161"/>
<path d="M128.557 250H256.999M256.999 250V377M256.999 250L-219 726" stroke="#616161"/>
<path d="M297.557 208H425.999M425.999 208V335M425.999 208L-50 684" stroke="#616161"/>
<path d="M466.557 166H594.999M594.999 166V294M594.999 166L119 642" stroke="#616161"/>
<path d="M635.557 125H763.999M763.999 125V253M763.999 125L288 601" stroke="#616161"/>
<path d="M804.557 84H932.999M932.999 84V211M932.999 84L457 560" stroke="#616161"/>
<path d="M973.557 42H1102M1102 42V170M1102 42L530 614" stroke="#616161"/>
<path d="M1142.56 1H1271M1271 1V129M1271 1L621 651" stroke="#A79C76"/>
</svg>
