<svg width="729" height="248" viewBox="0 0 729 248" fill="none" xmlns="http://www.w3.org/2000/svg">
<path d="M-64.7767 165H24M24 165V252M24 165L-305 494" stroke="#D3CFCC"/>
<path d="M52.2233 135H141M141 135V227M141 135L-188 464" stroke="#D3CFCC"/>
<path d="M170.223 109H259M259 109V200M259 109L-70 438" stroke="#D3CFCC"/>
<path d="M287.223 83H376M376 83V174M376 83L47 412" stroke="#D3CFCC"/>
<path d="M404.223 57H493M493 57V146M493 57L164 386" stroke="#D3CFCC"/>
<path d="M522.078 28H611M611 28V118M611 28L215 424" stroke="#D3CFCC"/>
<path d="M639.078 1H728M728 1V89.6154M728 1L278 451" stroke="#9F6000"/>
</svg>
