<svg width="524" height="225" viewBox="0 0 524 225" fill="none" xmlns="http://www.w3.org/2000/svg">
<path d="M0.5 171.347V171.847H1H101.157V220.903V221.403H101.657H126.434H126.934V220.903V171.847H154.308H154.808V171.347V149.667V149.167H154.308H126.934V4.09722V3.59722H126.434H86.1712H85.8814L85.7373 3.84867L0.566154 152.515L0.5 152.631V152.764V171.347ZM369.192 171.347V171.847H369.692H469.849V220.903V221.403H470.349H495.126H495.626V220.903V171.847H523H523.5V171.347V149.667V149.167H523H495.626V4.09722V3.59722H495.126H454.863H454.573L454.429 3.84867L369.258 152.515L369.192 152.631V152.764V171.347ZM101.157 37.1181V149.167H32.4713V148.25L95.7532 37.1181H101.157ZM178.597 112.5C178.597 147.674 186.666 175.16 202.868 194.894C219.06 214.615 239.019 224.5 262.72 224.5C286.421 224.5 306.38 214.615 322.571 194.894C338.773 175.16 346.842 147.674 346.842 112.5C346.842 77.3264 338.773 49.8404 322.571 30.1063C306.38 10.3853 286.421 0.5 262.72 0.5C239.019 0.5 219.06 10.3853 202.868 30.1063C186.666 49.8404 178.597 77.3264 178.597 112.5ZM262.72 24.7292C279.051 24.7292 292.849 32.3725 304.128 47.754C315.399 63.1234 321.065 84.6852 321.065 112.5C321.065 140.315 315.399 161.877 304.128 177.246C292.849 192.627 279.051 200.271 262.72 200.271C246.388 200.271 232.591 192.627 221.312 177.246C210.041 161.877 204.374 140.315 204.374 112.5C204.374 84.6852 210.041 63.1234 221.312 47.754C232.591 32.3725 246.388 24.7292 262.72 24.7292ZM469.849 37.1181V149.167H401.163V148.25L464.445 37.1181H469.849Z" stroke="#A79C76"/>
</svg>
