<svg width="36" height="36" viewBox="0 0 36 36" fill="none" xmlns="http://www.w3.org/2000/svg">
<path d="M10.4207 7.49289C10.8112 7.4422 11.2071 7.52881 11.5407 7.73789L22.9157 14.2041L20.037 17.1179L10.4207 7.49289ZM9.54573 8.36789C9.49087 8.55839 9.46434 8.75592 9.46698 8.95414V27.0316C9.46434 27.2299 9.49087 27.4274 9.54573 27.6179L19.1707 17.9929L9.54573 8.36789ZM20.0457 18.8679L10.4207 28.4929C10.8114 28.5482 11.2089 28.4612 11.5407 28.2479L22.9157 21.7816L20.0457 18.8679ZM27.5007 16.8204L24.0532 14.8604L20.9032 17.9929L24.0445 21.1341L27.492 19.1741C28.6295 18.5266 28.6295 17.4591 27.492 16.8116L27.5007 16.8204Z" fill="#A79C76"/>
</svg>
