<svg width="166" height="26" viewBox="0 0 166 26" fill="none" xmlns="http://www.w3.org/2000/svg">
<path d="M31.043 0.927083L29.8254 2.14635L27.1763 4.79331L25.2818 6.68989L23.1288 8.84127L21.2344 10.7357L9.44193 22.5298L0 13.0895V4.96967L2.30577 7.27382L2.78688 7.75444L6.8459 11.8156L9.45364 14.4215L17.1869 6.68989L17.9783 5.89869C19.0697 4.82032 20.1617 3.7414 21.2544 2.66195C21.8401 2.08306 22.4258 1.50467 23.0115 0.926758L31.043 0.927083Z" fill="#D7B685"/>
<path d="M32.5457 13.9273V22.024L26.9622 16.4403L24.3561 19.0481L20.745 22.6575H12.625L13.2869 21.9957L16.2363 19.0481L22.8915 12.3912L26.939 8.34537L26.9505 8.33203L32.5457 13.9273Z" fill="#D7B685"/>
<path d="M32.5433 2.77148V10.7172L28.5703 6.74428L32.5433 2.77148Z" fill="#D7B685"/>
<path d="M19.5215 0.930988C18.1715 2.28118 16.8224 3.63093 15.4744 4.98025L11.4219 0.927734H19.5168L19.5215 0.930988Z" fill="#D7B685"/>
<path d="M23.0118 0.927687H22.9492L22.9567 0.920898C22.9745 0.92421 22.9933 0.926031 23.0118 0.927687Z" fill="#D7B685"/>
<path d="M42.9023 20.0509V2.45361H50.6954C52.1367 2.45361 53.335 2.93126 54.2903 3.88654C55.2456 4.82506 55.7232 5.98146 55.7232 7.35572C55.7232 8.46184 55.4048 9.41712 54.768 10.2216C54.5166 10.54 54.2065 10.8417 53.8378 11.1266V11.2523C54.24 11.4869 54.592 11.7886 54.8937 12.1573C55.6143 13.012 55.9746 14.0092 55.9746 15.1488C55.9746 16.5398 55.497 17.7046 54.5417 18.6431C53.6032 19.5817 52.43 20.0509 51.0223 20.0509H42.9023ZM45.5419 10.121H50.5697C51.2736 10.121 51.8686 9.86963 52.3546 9.36685C52.8406 8.86407 53.0836 8.23559 53.0836 7.48142C53.0836 6.72725 52.8406 6.09877 52.3546 5.59599C51.8686 5.09321 51.2736 4.84182 50.5697 4.84182H45.5419V10.121ZM45.5419 17.6627H50.8211C51.525 17.6627 52.12 17.4113 52.606 16.9086C53.092 16.4058 53.335 15.7773 53.335 15.0231C53.335 14.269 53.092 13.6405 52.606 13.1377C52.12 12.6349 51.525 12.3835 50.8211 12.3835H45.5419V17.6627Z" fill="#F7F6F2"/>
<path d="M59.881 12.7606H67.297C67.1629 11.7383 66.7691 10.9171 66.1155 10.297C65.4619 9.67689 64.6407 9.36685 63.6519 9.36685C62.6128 9.36685 61.7748 9.67689 61.138 10.297C60.5011 10.9003 60.0821 11.7215 59.881 12.7606ZM66.6685 16.4058H69.3081C68.9394 17.4113 68.2691 18.3163 67.297 19.1208C66.3417 19.9085 65.1267 20.3023 63.6519 20.3023C61.8251 20.3023 60.3167 19.699 59.1268 18.4923C57.9537 17.2856 57.3671 15.7103 57.3671 13.7662C57.3671 11.8221 57.9537 10.2467 59.1268 9.04004C60.3167 7.83336 61.8251 7.23003 63.6519 7.23003C65.3613 7.23003 66.7942 7.81661 67.9506 8.98976C69.107 10.1629 69.6852 11.6294 69.6852 13.3891C69.6852 13.5399 69.6601 13.8416 69.6098 14.2941L69.5595 14.646H59.881C60.0151 15.7186 60.4257 16.5734 61.1128 17.2102C61.8 17.8471 62.6463 18.1655 63.6519 18.1655C64.3558 18.1655 64.9758 17.9979 65.5121 17.6627C66.0652 17.3108 66.4507 16.8918 66.6685 16.4058Z" fill="#F7F6F2"/>
<path d="M71.3271 20.0509V7.48142H73.841V13.2634L79.1202 7.48142H82.1369L76.4806 13.6405L82.3883 20.0509H79.3716L73.841 14.0176V20.0509H71.3271Z" fill="#F7F6F2"/>
<path d="M87.039 20.0509V9.86963H82.8911V7.48142H93.7009V9.86963H89.5529V20.0509H87.039Z" fill="#F7F6F2"/>
<path d="M97.1557 16.8834C97.8764 17.6543 98.7814 18.0398 99.8707 18.0398C100.96 18.0398 101.857 17.6543 102.561 16.8834C103.281 16.0957 103.642 15.0566 103.642 13.7662C103.642 12.4757 103.281 11.445 102.561 10.6741C101.857 9.88639 100.96 9.49254 99.8707 9.49254C98.7814 9.49254 97.8764 9.88639 97.1557 10.6741C96.4518 11.445 96.0999 12.4757 96.0999 13.7662C96.0999 15.0566 96.4518 16.0957 97.1557 16.8834ZM104.371 18.4923C103.197 19.699 101.697 20.3023 99.8707 20.3023C98.0439 20.3023 96.5356 19.699 95.3457 18.4923C94.1725 17.2856 93.586 15.7103 93.586 13.7662C93.586 11.8221 94.1725 10.2467 95.3457 9.04004C96.5356 7.83336 98.0439 7.23003 99.8707 7.23003C101.697 7.23003 103.197 7.83336 104.371 9.04004C105.561 10.2467 106.155 11.8221 106.155 13.7662C106.155 15.7103 105.561 17.2856 104.371 18.4923Z" fill="#F7F6F2"/>
<path d="M107.791 25.0787V7.48142H110.054L110.305 8.98976H110.431C110.699 8.68809 110.925 8.45346 111.11 8.28587C111.294 8.10151 111.688 7.88364 112.291 7.63225C112.911 7.3641 113.59 7.23003 114.328 7.23003C116.004 7.23003 117.386 7.82499 118.476 9.0149C119.565 10.2048 120.11 11.7886 120.11 13.7662C120.11 15.7438 119.565 17.3275 118.476 18.5175C117.386 19.7074 116.004 20.3023 114.328 20.3023C112.601 20.3023 111.303 19.7157 110.431 18.5426H110.305V25.0787H107.791ZM111.336 16.8583C112.04 17.646 112.911 18.0398 113.951 18.0398C114.99 18.0398 115.853 17.646 116.54 16.8583C117.244 16.0706 117.596 15.0399 117.596 13.7662C117.596 12.4925 117.244 11.4618 116.54 10.6741C115.853 9.88639 114.99 9.49254 113.951 9.49254C112.911 9.49254 112.04 9.88639 111.336 10.6741C110.649 11.4618 110.305 12.4925 110.305 13.7662C110.305 15.0399 110.649 16.0706 111.336 16.8583Z" fill="#F7F6F2"/>
<path d="M126.899 20.0509V2.45361H129.539V16.1544H130.041L137.08 2.45361H140.977V20.0509H138.337V6.35016H137.835L130.796 20.0509H126.899Z" fill="#F7F6F2"/>
<path d="M143.49 20.0509V7.48142H146.004V13.2634L151.283 7.48142H154.3L148.643 13.6405L154.551 20.0509H151.534L146.004 14.0176V20.0509H143.49Z" fill="#F7F6F2"/>
<path d="M163.487 15.6516H166.001C165.884 16.1711 165.691 16.6823 165.423 17.1851C165.171 17.6879 164.82 18.1823 164.367 18.6683C163.931 19.1543 163.353 19.5482 162.632 19.8498C161.912 20.1515 161.107 20.3023 160.219 20.3023C158.392 20.3023 156.884 19.699 155.694 18.4923C154.521 17.2856 153.934 15.7103 153.934 13.7662C153.934 11.8221 154.521 10.2467 155.694 9.04004C156.884 7.83336 158.392 7.23003 160.219 7.23003C161.895 7.23003 163.211 7.70767 164.166 8.66295C165.121 9.60148 165.733 10.6322 166.001 11.7551H163.487C162.951 10.2467 161.862 9.49254 160.219 9.49254C159.13 9.49254 158.225 9.88639 157.504 10.6741C156.8 11.445 156.448 12.4757 156.448 13.7662C156.448 15.0566 156.8 16.0957 157.504 16.8834C158.225 17.6543 159.13 18.0398 160.219 18.0398C161.124 18.0398 161.853 17.7968 162.406 17.3108C162.959 16.8248 163.32 16.2717 163.487 15.6516Z" fill="#F7F6F2"/>
</svg>
