<svg width="166" height="26" viewBox="0 0 166 26" fill="none" xmlns="http://www.w3.org/2000/svg">
<path d="M31.0429 0.927083L29.8253 2.14598L27.1762 4.79214L25.2818 6.68816L23.1288 8.83888L21.2343 10.7328L9.4419 22.5233L0 13.0858V4.96846L2.30577 7.27191L2.78687 7.75238L6.84588 11.8123L9.45361 14.4175L17.1869 6.68816L17.9782 5.89719C19.0696 4.81914 20.1616 3.74055 21.2543 2.66142C21.84 2.08271 22.4258 1.50449 23.0115 0.926758L31.0429 0.927083Z" fill="#141A2D"/>
<path d="M32.5457 13.9231V22.0174L26.9622 16.4354L24.3561 19.0424L20.745 22.6508H12.625L13.2869 21.9891L16.2363 19.0424L22.8915 12.3876L26.9389 8.34293L26.9505 8.32959L32.5457 13.9231Z" fill="#141A2D"/>
<path d="M32.5433 2.771V10.7144L28.5703 6.74259L32.5433 2.771Z" fill="#141A2D"/>
<path d="M19.5215 0.930987C18.1714 2.28077 16.8224 3.63012 15.4744 4.97903L11.4219 0.927734H19.5168L19.5215 0.930987Z" fill="#141A2D"/>
<path d="M23.0118 0.927687H22.9492L22.9567 0.920898C22.9745 0.92421 22.9933 0.926031 23.0118 0.927687Z" fill="#141A2D"/>
<path d="M42.9023 20.0526V2.46045H50.6955C52.1368 2.46045 53.3351 2.93795 54.2903 3.89295C55.2456 4.8312 55.7233 5.98725 55.7233 7.36111C55.7233 8.4669 55.4048 9.4219 54.768 10.2261C54.5166 10.5444 54.2065 10.846 53.8378 11.1308V11.2565C54.2401 11.4911 54.592 11.7926 54.8937 12.1612C55.6143 13.0157 55.9747 14.0126 55.9747 15.1519C55.9747 16.5425 55.497 17.7069 54.5417 18.6452C53.6032 19.5834 52.43 20.0526 51.0223 20.0526H42.9023ZM45.5419 10.1256H50.5698C51.2737 10.1256 51.8686 9.87426 52.3546 9.37163C52.8407 8.869 53.0837 8.24071 53.0837 7.48677C53.0837 6.73282 52.8407 6.10453 52.3546 5.6019C51.8686 5.09927 51.2737 4.84795 50.5698 4.84795H45.5419V10.1256ZM45.5419 17.6651H50.8211C51.525 17.6651 52.12 17.4137 52.606 16.9111C53.092 16.4085 53.3351 15.7802 53.3351 15.0262C53.3351 14.2723 53.092 13.644 52.606 13.1414C52.12 12.6387 51.525 12.3874 50.8211 12.3874H45.5419V17.6651Z" fill="#141A2D"/>
<path d="M59.881 12.7644H67.2971C67.163 11.7424 66.7691 10.9214 66.1155 10.3015C65.4619 9.68159 64.6407 9.37163 63.6519 9.37163C62.6128 9.37163 61.7748 9.68159 61.138 10.3015C60.5011 10.9047 60.0821 11.7256 59.881 12.7644ZM66.6686 16.4085H69.3082C68.9395 17.4137 68.2691 18.3185 67.2971 19.1227C66.3418 19.9101 65.1267 20.3039 63.6519 20.3039C61.8251 20.3039 60.3168 19.7007 59.1269 18.4944C57.9537 17.2881 57.3671 15.7132 57.3671 13.7697C57.3671 11.8261 57.9537 10.2512 59.1269 9.04492C60.3168 7.83861 61.8251 7.23545 63.6519 7.23545C65.3613 7.23545 66.7943 7.82185 67.9507 8.99466C69.1071 10.1675 69.6853 11.6335 69.6853 13.3927C69.6853 13.5435 69.6601 13.8451 69.6098 14.2974L69.5596 14.6493H59.881C60.0151 15.7215 60.4257 16.576 61.1128 17.2127C61.8 17.8494 62.6463 18.1677 63.6519 18.1677C64.3558 18.1677 64.9759 18.0001 65.5122 17.6651C66.0652 17.3132 66.4507 16.8944 66.6686 16.4085Z" fill="#141A2D"/>
<path d="M71.3272 20.0526V7.48677H73.8411V13.267L79.1203 7.48677H82.137L76.4807 13.644L82.3884 20.0526H79.3717L73.8411 14.021V20.0526H71.3272Z" fill="#141A2D"/>
<path d="M87.0391 20.0526V9.87426H82.8911V7.48677H93.7009V9.87426H89.553V20.0526H87.0391Z" fill="#141A2D"/>
<path d="M97.1558 16.886C97.8764 17.6567 98.7814 18.042 99.8708 18.042C100.96 18.042 101.857 17.6567 102.561 16.886C103.281 16.0985 103.642 15.0597 103.642 13.7697C103.642 12.4796 103.281 11.4492 102.561 10.6785C101.857 9.89102 100.96 9.49729 99.8708 9.49729C98.7814 9.49729 97.8764 9.89102 97.1558 10.6785C96.4519 11.4492 96.0999 12.4796 96.0999 13.7697C96.0999 15.0597 96.4519 16.0985 97.1558 16.886ZM104.371 18.4944C103.198 19.7007 101.698 20.3039 99.8708 20.3039C98.044 20.3039 96.5357 19.7007 95.3458 18.4944C94.1726 17.2881 93.586 15.7132 93.586 13.7697C93.586 11.8261 94.1726 10.2512 95.3458 9.04492C96.5357 7.83861 98.044 7.23545 99.8708 7.23545C101.698 7.23545 103.198 7.83861 104.371 9.04492C105.561 10.2512 106.156 11.8261 106.156 13.7697C106.156 15.7132 105.561 17.2881 104.371 18.4944Z" fill="#141A2D"/>
<path d="M107.792 25.0789V7.48677H110.054L110.305 8.99466H110.431C110.699 8.69308 110.926 8.45852 111.11 8.29098C111.294 8.10668 111.688 7.88887 112.291 7.63755C112.912 7.36948 113.59 7.23545 114.328 7.23545C116.004 7.23545 117.386 7.83023 118.476 9.01979C119.565 10.2094 120.11 11.7926 120.11 13.7697C120.11 15.7467 119.565 17.33 118.476 18.5195C117.386 19.7091 116.004 20.3039 114.328 20.3039C112.602 20.3039 111.303 19.7175 110.431 18.5447H110.305V25.0789H107.792ZM111.336 16.8608C112.04 17.6483 112.912 18.042 113.951 18.042C114.99 18.042 115.853 17.6483 116.54 16.8608C117.244 16.0734 117.596 15.043 117.596 13.7697C117.596 12.4963 117.244 11.4659 116.54 10.6785C115.853 9.89102 114.99 9.49729 113.951 9.49729C112.912 9.49729 112.04 9.89102 111.336 10.6785C110.649 11.4659 110.305 12.4963 110.305 13.7697C110.305 15.043 110.649 16.0734 111.336 16.8608Z" fill="#141A2D"/>
<path d="M126.899 20.0526V2.46045H129.539V16.1572H130.042L137.081 2.46045H140.977V20.0526H138.337V6.35584H137.835L130.796 20.0526H126.899Z" fill="#141A2D"/>
<path d="M143.49 20.0526V7.48677H146.004V13.267L151.283 7.48677H154.3L148.644 13.644L154.551 20.0526H151.535L146.004 14.021V20.0526H143.49Z" fill="#141A2D"/>
<path d="M163.487 15.6545H166.001C165.884 16.1739 165.691 16.6849 165.423 17.1876C165.172 17.6902 164.82 18.1844 164.367 18.6703C163.931 19.1562 163.353 19.5499 162.633 19.8515C161.912 20.1531 161.108 20.3039 160.219 20.3039C158.393 20.3039 156.884 19.7007 155.694 18.4944C154.521 17.2881 153.935 15.7132 153.935 13.7697C153.935 11.8261 154.521 10.2512 155.694 9.04492C156.884 7.83861 158.393 7.23545 160.219 7.23545C161.895 7.23545 163.211 7.71295 164.166 8.66795C165.121 9.60619 165.733 10.6366 166.001 11.7591H163.487C162.951 10.2512 161.862 9.49729 160.219 9.49729C159.13 9.49729 158.225 9.89102 157.504 10.6785C156.8 11.4492 156.448 12.4796 156.448 13.7697C156.448 15.0597 156.8 16.0985 157.504 16.886C158.225 17.6567 159.13 18.042 160.219 18.042C161.124 18.042 161.853 17.7991 162.406 17.3132C162.959 16.8273 163.32 16.2744 163.487 15.6545Z" fill="#141A2D"/>
</svg>
