<svg width="32" height="32" viewBox="0 0 32 32" fill="none" xmlns="http://www.w3.org/2000/svg">
<path fill-rule="evenodd" clip-rule="evenodd" d="M0.0338716 0.740978L15.2929 16L0.0338716 31.259C0.0117786 31.1764 0 31.0896 0 31V1C0 0.91042 0.0117786 0.823592 0.0338716 0.740978ZM0.740978 0.0338716L16 15.2929L31.259 0.0338716C31.1764 0.0117786 31.0896 0 31 0H1C0.91042 0 0.823592 0.0117786 0.740978 0.0338716ZM31.9661 0.740979L16.7071 16L31.9661 31.259C31.9882 31.1764 32 31.0896 32 31V1C32 0.91042 31.9882 0.823592 31.9661 0.740979ZM31.259 31.9661L16 16.7071L0.740979 31.9661C0.823592 31.9882 0.91042 32 1 32H31C31.0896 32 31.1764 31.9882 31.259 31.9661Z" fill="#A79C76"/>
</svg>
