<svg width="32" height="32" viewBox="0 0 32 32" fill="none" xmlns="http://www.w3.org/2000/svg">
<path fill-rule="evenodd" clip-rule="evenodd" d="M15.7956 31C15.8065 31.3213 15.8173 31.651 15.8282 31.9895C15.8283 31.993 15.8285 31.9965 15.8286 32C15.6071 32 15.3879 32 15.171 31.9998C15.056 31.9998 14.9417 31.9997 14.828 31.9995C8.76076 31.9917 4.54207 31.8599 2.30857 29.6914C0.143804 27.4617 0.00875479 23.0588 0.000523866 17.1719C0.000364859 17.0582 0.00025318 16.9439 0.00017511 16.8291C2.73927e-05 16.6118 0 16.3926 0 16.1714C0.00369132 16.1715 0.0073816 16.1717 0.0110708 16.1718C0.349383 16.1821 0.67891 16.1924 1 16.2029C3.08167 16.2709 4.80875 16.3465 6.27669 16.5C9.31949 16.8183 11.2488 17.4716 12.9143 19.0857C14.5284 20.7512 15.177 22.6805 15.4949 25.7232C15.6483 27.1912 15.7248 28.9183 15.7956 31ZM16.5 25.7233C16.3465 27.1912 16.2709 28.9183 16.2029 31C16.1924 31.3211 16.1821 31.6506 16.1718 31.9889C16.1717 31.9926 16.1715 31.9963 16.1714 32C16.393 32 16.6122 32 16.8291 31.9998C16.944 31.9998 17.0583 31.9997 17.1719 31.9995C23.2392 31.9917 27.4579 31.8599 29.6914 29.6914C31.8562 27.4617 31.9912 23.0588 31.9995 17.172C31.9996 17.0582 31.9997 16.9439 31.9998 16.8291C32 16.6118 32 16.3926 32 16.1714C31.9963 16.1715 31.9926 16.1717 31.9889 16.1718C31.6506 16.1827 31.3211 16.1935 31 16.2044C28.93 16.2748 27.2106 16.3508 25.748 16.5025C22.6909 16.8195 20.7557 17.4672 19.0857 19.0857C17.4716 20.7512 16.8183 22.6805 16.5 25.7233ZM19.7929 19.7929C18.7073 20.9173 18.1073 22.1802 17.7492 24.0469C17.4169 25.7799 17.3028 27.9738 17.2035 30.9994C20.0632 30.9954 22.4454 30.9628 24.3978 30.7111C26.5781 30.4299 28.0402 29.8942 28.9842 28.9843C29.8898 28.0443 30.4284 26.5346 30.7109 24.3179C30.9619 22.3479 30.9951 19.9726 30.9994 17.2051C27.9736 17.3085 25.7799 17.4224 24.0463 17.7537C22.1789 18.1105 20.9166 18.708 19.7929 19.7929ZM25.748 15.4975C27.2106 15.6492 28.93 15.7252 31 15.7956C31.3211 15.8065 31.6506 15.8173 31.9889 15.8282C31.9926 15.8283 31.9963 15.8285 32 15.8286C32 15.6074 32 15.3882 31.9998 15.1709C31.9997 15.0561 31.9996 14.9418 31.9995 14.828C31.9912 8.9412 31.8562 4.53827 29.6914 2.30857C27.4579 0.140119 23.2392 0.00830083 17.1719 0.00048292C16.8438 6.01575e-05 16.5103 0 16.1714 0C16.1715 0.00350653 16.1716 0.00701211 16.1718 0.0105167C16.1821 0.349024 16.1924 0.678734 16.2029 1C16.2712 3.09327 16.3473 4.828 16.5026 6.30122C16.8218 9.32987 17.4759 11.2533 19.0857 12.9143C20.7557 14.5328 22.6909 15.1805 25.748 15.4975ZM19.7929 12.2071C20.9166 13.292 22.1789 13.8895 24.0463 14.2463C25.7799 14.5776 27.9736 14.6915 30.9994 14.7949C30.9951 12.0274 30.9619 9.65209 30.7109 7.68211C30.4284 5.46543 29.8898 3.95568 28.9842 3.01575C28.0402 2.10585 26.5781 1.57007 24.3978 1.28893C22.4454 1.03717 20.0632 1.00463 17.2035 1.00056C17.3028 4.02616 17.4169 6.22007 17.7492 7.95307C18.1073 9.81985 18.7073 11.0827 19.7929 12.2071ZM15.4974 6.30122C15.6527 4.828 15.7288 3.09327 15.7971 1C15.8076 0.678734 15.8179 0.349024 15.8282 0.0105168C15.8284 0.00701212 15.8285 0.00350653 15.8286 0C15.6071 0 15.3879 2.5786e-05 15.171 0.000162235C15.056 0.000234534 14.9417 0.000337902 14.8281 0.000484966C8.77034 0.00832381 4.54188 0.140308 2.30857 2.30857C0.143811 4.53827 0.00875558 8.9412 0.000523938 14.828C6.40051e-05 15.157 0 15.4905 0 15.8286C0.00350671 15.8285 0.00701247 15.8283 0.0105173 15.8282C0.349024 15.8173 0.678734 15.8065 1 15.7956C3.0817 15.7248 4.80881 15.6483 6.27677 15.4949C9.31952 15.177 11.2488 14.5284 12.9143 12.9143C14.5241 11.2533 15.1782 9.32987 15.4974 6.30122ZM1.00061 14.7949C4.02639 14.6915 6.22013 14.5776 7.95374 14.2463C9.82115 13.8895 11.0834 13.292 12.2071 12.2071C13.2927 11.0827 13.8927 9.81984 14.2508 7.95307C14.5831 6.22007 14.6972 4.02616 14.7965 1.00056C11.9417 1.00464 9.55974 1.03721 7.60638 1.28894C5.42423 1.57015 3.95958 2.10608 3.0158 3.01575C2.11018 3.95567 1.57157 5.46543 1.28912 7.68211C1.03811 9.65209 1.00487 12.0274 1.00061 14.7949ZM12.2071 19.7929C11.0827 18.7073 9.81985 18.1073 7.95307 17.7492C6.22007 17.4169 4.02619 17.3028 1.00061 17.2035C1.00486 19.9717 1.03806 22.3475 1.28912 24.3179C1.57157 26.5346 2.11019 28.0443 3.01581 28.9843C3.95981 29.8942 5.42195 30.4299 7.60218 30.7111C9.55422 30.9628 11.936 30.9954 14.7949 30.9994C14.6915 27.9736 14.5776 25.7799 14.2463 24.0463C13.8895 22.1789 13.292 20.9166 12.2071 19.7929Z" fill="#A79C76"/>
</svg>
